<svg width="248" height="247" viewBox="0 0 248 247" fill="none" xmlns="http://www.w3.org/2000/svg">
<path d="M88.6929 24.6678C83.4376 30.0012 81.5991 32.8345 81.5991 35.6001C81.5991 38.2512 86.3022 45.6001 97.8022 60.9335C106.698 72.8033 114 82.897 114 83.3345C114 83.772 108.688 92.6678 102.214 103.069C81.8804 135.736 81.4845 136.564 82.3231 144.532C82.7293 148.407 84.7554 157.199 86.8022 164.001L90.5314 176.402L79.9324 196.803C69.6095 216.668 69.3856 217.298 71.4012 220.933C73.0314 223.887 74.5991 224.751 78.8647 225.069C82.4689 225.335 84.8231 224.803 85.9324 223.47C88.9533 219.835 107.401 184.933 108.833 180.137C110.005 176.215 109.766 173.866 107.531 167.335C106.031 162.933 104.979 159.183 105.198 159.001C105.422 158.819 110.745 163.933 117 170.335L128.401 182.001L125.198 198.668C123.432 207.866 121.662 217.126 121.24 219.335C119.651 227.736 129.511 233.444 135.735 227.73C138.526 225.168 139.636 221.736 142.552 206.668C148.156 177.736 148.453 179.048 132.125 160.532C124.485 151.866 118.104 144.032 118.068 143.267C118.031 142.496 123.974 132.803 131.354 121.6C148.047 96.2668 148.068 96.0741 135.735 84.121C130.719 79.2616 120.047 66.6001 111.865 55.8033L97.0679 36.2668L101.542 31.1991C106.37 25.7356 106.99 22.5897 103.865 19.4699C100.115 15.7147 96.172 17.0689 88.6929 24.6678Z" fill="white"/>
<path d="M143.734 38.7232C138.208 40.3846 131.672 48.0044 130.526 54.1398C126.547 75.3377 156.177 87.2492 167.339 68.9367C170.828 63.2023 170.849 52.8065 167.38 47.0721C163.021 39.8742 152.401 36.1242 143.734 38.7232Z" fill="white"/>
</svg>
