<svg width="247" height="247" viewBox="0 0 247 247" fill="none" xmlns="http://www.w3.org/2000/svg">
<path d="M104.735 24.388C97.2659 31.2057 91.0002 40.5807 91.0002 44.9297C91.0002 49.1536 97.3023 58.1328 109.537 71.3307C115.094 77.3307 120.99 84.638 122.599 87.5286L125.531 92.7995L108.802 119.862C94.7867 142.529 92.219 147.508 93.0002 150.466C93.5159 152.409 100.177 160.331 107.802 168.065C115.422 175.799 121.667 182.763 121.667 183.529C121.667 184.294 116.235 193.529 109.667 203.93C102.172 215.799 97.6669 224.284 97.6669 226.529C97.6669 233.065 104.776 236.68 111 233.31C113.328 232.049 132.667 201.732 138.88 189.596C143.125 181.315 142.552 178.529 134.709 169.331C130.849 164.799 125.979 159.044 123.933 156.596L120.198 152.133L133.604 129.732C149.641 102.93 149.901 101.617 141.297 90.6641C138.115 86.6172 133.292 79.862 130.531 75.5964C127.771 71.3203 120.792 62.7995 114.933 56.5286C109.073 50.263 104.334 44.5391 104.334 43.7318C104.334 42.9141 106.683 39.7318 109.651 36.5286C117.318 28.263 118.729 24.7005 115.683 21.3307C114.354 19.862 112.755 18.6641 112.136 18.6641C111.505 18.6641 108.198 21.2214 104.735 24.388Z" fill="#3F713B"/>
<path d="M140.865 54.4899C135.573 57.6722 133.084 63.7295 133.953 71.3285C135.646 86.2608 153.87 91.4066 163.703 79.7295C169.959 72.3024 167.401 58.318 159 53.9951C153.667 51.2503 145.896 51.4639 140.865 54.4899Z" fill="#3F713B"/>
</svg>
