<svg width="248" height="247" viewBox="0 0 248 247" fill="none" xmlns="http://www.w3.org/2000/svg">
<path d="M72.4011 25.0403C64.8022 32.4465 63.1772 34.7695 63.0522 38.4049C62.8751 43.8268 65.4688 46.5507 71.7345 47.5247C75.7345 48.1445 77.1251 47.6809 80.0678 44.7382C82.599 42.2018 83.3751 40.3163 82.8022 38.0715C82.2917 36.0715 82.7969 34.2851 84.198 33.1393C86.1094 31.5768 87.0938 32.1393 91.5886 37.3372C100.005 47.0715 119.255 74.6601 123.495 83.0715L127.469 90.9361L121.068 90.2018C117.5 89.7955 111.068 89.1132 106.531 88.6601C94.6667 87.483 94.5626 87.3424 97.1459 76.0038C98.3594 70.6705 99.3334 65.0976 99.3334 63.4726C99.3334 59.8684 92.8022 53.3372 89.198 53.3372C86.8907 53.3372 86.2969 54.8059 84.7657 64.2695C80.7032 89.3372 81.2032 96.1028 87.3334 99.3111C89.4376 100.415 96.0001 102.098 101.734 103.004L112.266 104.671L106.698 120.004C96.5834 147.868 96.9688 145.827 99.0105 160.671C102.167 183.603 102.719 181.316 88.9897 202.139C76.4167 221.202 74.698 225.9 78.8022 230.004C81.6042 232.811 87.8647 232.67 90.8022 229.738C93.8542 226.686 111.38 200.004 116.026 191.337C119.109 185.587 119.479 183.671 118.734 177.405L117.865 170.139L121.198 173.269C123.052 175.009 125.984 178.535 127.802 181.202L131.068 186.004L129.214 204.671C126.854 228.405 126.828 227.499 130 230.671C133.724 234.394 140.318 233.738 143.401 229.337C145.229 226.723 146.021 221.269 147.068 204.072C147.844 191.269 147.901 180.858 147.198 179.072C146.547 177.4 141.12 169.671 135.266 162.072L124.531 148.139L128.135 141.072C130.104 137.202 132.245 133.79 132.865 133.535C133.516 133.269 134.802 132.269 135.865 131.202C137.474 129.592 138.781 132.004 145.333 148.671C152.51 166.936 155.458 172.613 152.672 162.806C152.167 170.5 155.849 167 158.167 167C158.672 167 168.667 167 158.167 164.5C159.839 168.5 162.714 166.457 162.932 166.202C163.151 165.947 158.766 153.473 153.198 138.535C143.313 112.004 143.104 111.186 144.599 105.202C145.927 99.8945 145.766 98.1393 143.401 92.1393C141.875 88.2695 140.667 84.9361 140.667 84.6028C140.667 84.2747 143.068 82.7851 146 81.2955C153.917 77.2695 156.948 71.7382 156.339 62.4049C155.802 54.1393 152.859 49.6288 145.469 45.7382C140.271 43.0038 130.266 44.0143 124.932 47.8163C122.667 49.4361 120.672 50.6705 120.333 50.6705C120 50.6705 117.729 47.8684 115.255 44.4049C107.245 33.2018 95.3594 20.0663 91.3334 17.9674C84.7188 14.5195 82.2657 15.4309 72.4011 25.0403Z" fill="#3F713B"/>
</svg>
