<svg width="247" height="247" viewBox="0 0 247 247" fill="none" xmlns="http://www.w3.org/2000/svg">
<path d="M91.0678 22.6146C82.9844 27.5729 80.3542 38.1354 84.849 47.599C87.9271 54.0885 93.7344 57.3333 102.266 57.3333C108.135 57.3333 109.917 56.7031 113.865 53.25C123.068 45.1979 123.068 32.1354 113.865 24.0833C109.917 20.6302 108.135 20 102.266 20C97.7344 20 93.8542 20.9063 91.0678 22.6146Z" fill="#3F713B"/>
<path d="M96.5313 63.0824C89.2136 67.0615 90.4167 70.6657 103.714 84.5303C114.375 95.6553 122.125 105.067 130.729 117.332L134 121.999L130 119.14C124.635 115.312 111.146 100.801 105.385 92.6657C101.896 87.7334 99.698 85.8845 96.9324 85.5668C93.0678 85.1188 88.0001 88.3897 88.0001 91.3324C88.0001 92.1397 84.6772 101.067 80.599 111.197C75.1824 124.666 73.4167 130.598 74.0001 133.332C74.4376 135.384 79.5782 144.067 85.4011 152.598C91.224 161.134 96.0001 168.884 96.0001 169.801C96.0001 170.713 92.099 180.53 87.3334 191.598C82.5678 202.666 78.6667 212.931 78.6667 214.4C78.6667 217.614 84.5313 222.666 88.2657 222.666C92.9219 222.666 96.6824 216.801 106.474 194.265C114.063 176.801 116.115 170.775 115.599 167.468C115.234 165.119 110.953 157.197 106.089 149.864C96.6251 135.598 96.7084 136.103 101.51 123.332L104.266 115.999L114.802 125.301C126.135 135.306 131.917 138.827 141.068 141.301C150 143.713 156 140.509 156 133.332C156 126.53 132.073 92.8011 112.677 72.2647C103.479 62.5303 100.578 60.8793 96.5313 63.0824Z" fill="#3F713B"/>
</svg>
