<svg width="247" height="247" viewBox="0 0 247 247" fill="none" xmlns="http://www.w3.org/2000/svg">
<path d="M109.333 28.9431C95.0676 36.3494 95.0676 57.1619 109.333 64.3129C118.531 68.9275 128.266 66.1827 135.052 57.0681C138.828 52.0004 138.896 41.4015 135.182 36.4015C128.552 27.4692 118.031 24.4327 109.333 28.9431Z" fill="#3F713B"/>
<path d="M107.333 71.5977C105.135 72.7696 99.7343 77.0925 95.3333 81.1967C90.9322 85.3061 84.5156 90.5873 81.0676 92.9415C70.5103 100.139 70.177 101.197 71.3281 123.468C72.4166 144.4 73.2499 146.665 79.8645 146.665C86.1197 146.665 86.6666 144.931 86.6666 125.197V106.931L93.1978 102.134C96.802 99.4884 100.031 97.3321 100.401 97.3321C100.771 97.3321 101.276 106.197 101.531 117.134L102 136.931L107.198 144.801C110.099 149.181 115.38 156.801 119.135 161.999L125.865 171.332L127.469 192.665C128.917 211.999 129.344 214.218 132 216.311C136 219.468 140.703 219.296 144.135 215.863C146.776 213.223 146.88 212.264 146.005 198.931C144.073 169.598 143.693 168.061 135.161 155.066L127.469 143.332L127.068 125.999C126.781 113.598 127.062 109.233 128.068 110.665C128.833 111.759 134.047 120.801 139.599 130.665C146.521 142.957 153.838 159.134 162.667 181.665C169.771 199.801 176.713 215.895 178.068 217.4C180.104 219.655 181.802 220.061 187.802 219.733C193.802 219.4 195.521 218.718 197.667 215.801C199.948 212.702 200.047 211.801 198.469 208.468C196.911 205.176 195.734 204.577 189.734 203.999C185.865 203.629 182.536 203.035 182.198 202.665C181.87 202.301 176.526 189.332 170.333 173.863C162.536 154.4 159.229 144.54 159.599 141.863C160.01 138.884 157.724 133.733 149.599 119.332C143.807 109.066 135.63 94.4831 131.427 86.9311C121.854 69.7331 116.828 66.5352 107.333 71.5977Z" fill="#3F713B"/>
<path d="M85.2239 167.597C61.9114 212.133 62.3697 211.118 63.8333 214.93C66.1354 220.93 75.427 222.269 79.5468 217.196C80.3854 216.17 87.1822 203.467 94.6666 188.93L108.266 162.529L104.583 155.597C97.4947 142.248 98.9791 141.331 85.2239 167.597Z" fill="#3F713B"/>
</svg>
